# xmcd
#
# Track frame offsets:
# 150
# 18761
# 32689
# 47825
# 62511
# 78092
# 90843
# 108933
# 124256
# 140471
#
# Disc length: 2079 seconds
#
#
# Revision: 0
# Processed by: cddbd v1.5.1PL0 Copyright (c) Steve Scherf et al.
# Submitted via: FreeRIP 2.80 
#
DISCID=6e081d0a
DTITLE=Mike Hammock - Examine Me
DYEAR=2000
DGENRE=Gospel
TTITLE0=You Beat All That I've Never Seen
TTITLE1=Fisher Of Men
TTITLE2=Examine Me
TTITLE3=Sonsecrated Man
TTITLE4=Where Would I Be Without You
TTITLE5=GetOn You Feet
TTITLE6=Someone Cares
TTITLE7=Wht Ask Wht
TTITLE8=Heart Soul And Mind
TTITLE9=Bad And Brave
EXTD=
EXTT0=
EXTT1=
EXTT2=
EXTT3=
EXTT4=
EXTT5=
EXTT6=
EXTT7=
EXTT8=
EXTT9=
PLAYORDER=
